<?xml version="1.0" encoding="UTF-8"?>
<svg width="175px" height="24px" viewBox="0 0 175 24" version="1.1" xmlns="http://www.w3.org/2000/svg" xmlns:xlink="http://www.w3.org/1999/xlink">
    <!-- Generator: Sketch 54.1 (76490) - https://sketchapp.com -->
    <title>Group 18</title>
    <desc>Created with Sketch.</desc>
    <g id="Landing" stroke="none" stroke-width="1" fill="none" fill-rule="evenodd">
        <g id="LP-Metropolis-v2" transform="translate(-113.000000, -24.000000)" fill-rule="nonzero">
            <g id="Nav">
                <g id="Group-18" transform="translate(113.000000, 24.000000)">
                    <path d="M0,0.50625 L3.7546875,0.50625 L3.7546875,3.7125 C4.654692,2.60155695 5.47030884,1.79297128 6.2015625,1.28671875 C7.45313126,0.428901961 8.87342955,0 10.4625,0 C12.262509,0 13.710932,0.44296432 14.8078125,1.32890625 C15.4265656,1.83515878 15.98906,2.58046383 16.4953125,3.56484375 C17.3390667,2.3554627 18.3304631,1.45898729 19.4695312,0.875390625 C20.6085994,0.291793957 21.8882741,0 23.3085937,0 C26.3461089,0 28.4132758,1.09686403 29.5101562,3.290625 C30.1007842,4.47188091 30.3960937,6.06092752 30.3960937,8.0578125 L30.3960937,23.0976562 L26.4515625,23.0976562 L26.4515625,7.40390625 C26.4515625,5.89921123 26.0753944,4.86562781 25.3230469,4.303125 C24.5706994,3.74062219 23.6531304,3.459375 22.5703125,3.459375 C21.07968,3.459375 19.7964898,3.95858876 18.7207031,4.95703125 C17.6449165,5.95547374 17.1070312,7.62186333 17.1070312,9.95625 L17.1070312,23.0976562 L13.246875,23.0976562 L13.246875,8.353125 C13.246875,6.82030484 13.0640643,5.70234727 12.6984375,4.99921875 C12.1218721,3.94452598 11.0461016,3.4171875 9.47109375,3.4171875 C8.03671158,3.4171875 6.73242775,3.9726507 5.55820312,5.08359375 C4.3839785,6.1945368 3.796875,8.2054542 3.796875,11.1164062 L3.796875,23.0976562 L0,23.0976562 L0,0.50625 Z M39.7828125,0.50625 L39.7828125,15.5039062 C39.7828125,16.657037 39.9656232,17.5992151 40.33125,18.3304688 C41.0062534,19.6804755 42.2648345,20.3554688 44.1070312,20.3554688 C46.7507945,20.3554688 48.5507765,19.1742306 49.5070312,16.8117187 C50.0273464,15.5460874 50.2875,13.809386 50.2875,11.6015625 L50.2875,0.50625 L54.084375,0.50625 L54.084375,23.0976562 L50.4984375,23.0976562 L50.540625,19.7648437 C50.048435,20.6226605 49.4367224,21.346872 48.7054687,21.9375 C47.257024,23.1187559 45.4992291,23.709375 43.4320312,23.709375 C40.2117026,23.709375 38.0179746,22.6336045 36.8507812,20.4820312 C36.2179656,19.3289005 35.9015625,17.7890721 35.9015625,15.8625 L35.9015625,0.50625 L39.7828125,0.50625 Z" id="mu" fill="#F8CC4A"></path>
                    <path d="M66.815625,0.53203125 L68.4855469,0.53203125 L70.9582031,7.809375 L73.4132812,0.53203125 L75.065625,0.53203125 L75.065625,9.13945312 L73.9582031,9.13945312 L73.9582031,4.059375 C73.9582031,3.88359287 73.9621093,3.59258016 73.9699219,3.18632813 C73.9777344,2.78007609 73.9816406,2.34453357 73.9816406,1.8796875 L71.5265625,9.13945312 L70.3722656,9.13945312 L67.8996094,1.8796875 L67.8996094,2.14335938 C67.8996094,2.35429793 67.9044921,2.67558378 67.9142578,3.10722656 C67.9240235,3.53886935 67.9289062,3.85624898 67.9289062,4.059375 L67.9289062,9.13945312 L66.815625,9.13945312 L66.815625,0.53203125 Z M78.285677,0.53203125 L84.5610676,0.53203125 L84.5610676,1.58671875 L79.4223957,1.58671875 L79.4223957,4.2 L84.1743488,4.2 L84.1743488,5.19609375 L79.4223957,5.19609375 L79.4223957,8.1140625 L84.6489582,8.1140625 L84.6489582,9.13945312 L78.285677,9.13945312 L78.285677,0.53203125 Z M93.7752601,0.53203125 L93.7752601,1.55742187 L90.8748695,1.55742187 L90.8748695,9.13945312 L89.6912758,9.13945312 L89.6912758,1.55742187 L86.7908851,1.55742187 L86.7908851,0.53203125 L93.7752601,0.53203125 Z M100.176953,4.47539063 C100.72383,4.47539063 101.156443,4.36601672 101.474804,4.14726563 C101.793165,3.92851453 101.952343,3.53398723 101.952343,2.96367188 C101.952343,2.35038756 101.729689,1.93242299 101.284375,1.70976562 C101.046092,1.59257754 100.727736,1.53398437 100.329296,1.53398437 L97.4816402,1.53398437 L97.4816402,4.47539063 L100.176953,4.47539063 Z M96.3156246,0.53203125 L100.3,0.53203125 C100.956253,0.53203125 101.497263,0.627733418 101.923046,0.819140625 C102.731644,1.18632996 103.135937,1.86405756 103.135937,2.85234375 C103.135937,3.36797133 103.029493,3.78984211 102.816601,4.11796875 C102.603709,4.44609539 102.305861,4.70976463 101.923046,4.90898438 C102.258986,5.04570381 102.511913,5.22538951 102.681836,5.44804688 C102.851758,5.67070424 102.946484,6.03202875 102.966015,6.53203125 L103.007031,7.68632813 C103.01875,8.01445477 103.046093,8.25859295 103.089062,8.41875 C103.159375,8.69218887 103.284374,8.86796836 103.464062,8.94609375 L103.464062,9.13945312 L102.034375,9.13945312 C101.995312,9.065234 101.964062,8.96953184 101.940625,8.85234375 C101.917187,8.73515566 101.897656,8.50859543 101.882031,8.17265625 L101.811718,6.73710938 C101.784374,6.17460656 101.575392,5.79765721 101.184765,5.60625 C100.962108,5.50078072 100.612502,5.44804688 100.135937,5.44804688 L97.4816402,5.44804688 L97.4816402,9.13945312 L96.3156246,9.13945312 L96.3156246,0.53203125 Z M109.889192,0.29765625 C111.408731,0.29765625 112.53372,0.785932617 113.264192,1.7625 C113.834508,2.52422256 114.119661,3.49882219 114.119661,4.68632813 C114.119661,5.9714908 113.793492,7.03983949 113.141145,7.89140625 C112.375516,8.89141125 111.283731,9.39140625 109.865755,9.39140625 C108.541529,9.39140625 107.500524,8.95391063 106.742708,8.07890625 C106.066923,7.23515203 105.729036,6.16875645 105.729036,4.8796875 C105.729036,3.71561918 106.018096,2.71953539 106.596223,1.89140625 C107.338415,0.828900937 108.43606,0.29765625 109.889192,0.29765625 Z M110.00638,8.3484375 C111.033729,8.3484375 111.776885,7.98027712 112.235872,7.24394531 C112.694859,6.50761351 112.924348,5.66094229 112.924348,4.70390625 C112.924348,3.69218244 112.659703,2.87773746 112.130403,2.26054688 C111.601104,1.64335629 110.877478,1.33476562 109.959505,1.33476562 C109.068875,1.33476562 108.34232,1.64042663 107.779817,2.25175781 C107.217314,2.86308899 106.936067,3.76444717 106.936067,4.95585938 C106.936067,5.90898914 107.177276,6.71269204 107.6597,7.36699219 C108.142124,8.02129233 108.924343,8.3484375 110.00638,8.3484375 Z M116.952994,0.53203125 L120.826041,0.53203125 C121.59167,0.53203125 122.208851,0.747849404 122.677603,1.17949219 C123.146356,1.61113497 123.380728,2.21757422 123.380728,2.99882813 C123.380728,3.67070648 123.171746,4.25566157 122.753775,4.75371094 C122.335805,5.2517603 121.693233,5.50078125 120.826041,5.50078125 L118.11901,5.50078125 L118.11901,9.13945312 L116.952994,9.13945312 L116.952994,0.53203125 Z M122.202994,3.0046875 C122.202994,2.37187184 121.968621,1.94218863 121.499869,1.715625 C121.242055,1.59453064 120.888543,1.53398437 120.439322,1.53398437 L118.11901,1.53398437 L118.11901,4.51640625 L120.439322,4.51640625 C120.962762,4.51640625 121.387563,4.40507924 121.713736,4.18242188 C122.03991,3.95976451 122.202994,3.56719031 122.202994,3.0046875 Z M129.893749,0.29765625 C131.413288,0.29765625 132.538277,0.785932617 133.268749,1.7625 C133.839065,2.52422256 134.124218,3.49882219 134.124218,4.68632813 C134.124218,5.9714908 133.798049,7.03983949 133.145702,7.89140625 C132.380073,8.89141125 131.288288,9.39140625 129.870312,9.39140625 C128.546086,9.39140625 127.505081,8.95391063 126.747265,8.07890625 C126.07148,7.23515203 125.733593,6.16875645 125.733593,4.8796875 C125.733593,3.71561918 126.022653,2.71953539 126.60078,1.89140625 C127.342972,0.828900937 128.440617,0.29765625 129.893749,0.29765625 Z M130.010937,8.3484375 C131.038286,8.3484375 131.781442,7.98027712 132.240429,7.24394531 C132.699416,6.50761351 132.928905,5.66094229 132.928905,4.70390625 C132.928905,3.69218244 132.66426,2.87773746 132.13496,2.26054688 C131.605661,1.64335629 130.882035,1.33476562 129.964062,1.33476562 C129.073432,1.33476562 128.346877,1.64042663 127.784374,2.25175781 C127.221871,2.86308899 126.940624,3.76444717 126.940624,4.95585938 C126.940624,5.90898914 127.181833,6.71269204 127.664257,7.36699219 C128.146681,8.02129233 128.9289,8.3484375 130.010937,8.3484375 Z M136.846223,0.53203125 L138.012239,0.53203125 L138.012239,8.1140625 L142.371614,8.1140625 L142.371614,9.13945312 L136.846223,9.13945312 L136.846223,0.53203125 Z M145.117056,0.53203125 L146.294791,0.53203125 L146.294791,9.13945312 L145.117056,9.13945312 L145.117056,0.53203125 Z M150.282421,6.36210938 C150.309765,6.85039307 150.424998,7.24687348 150.628124,7.5515625 C151.014844,8.12187785 151.696478,8.40703125 152.673046,8.40703125 C153.110548,8.40703125 153.508981,8.34453187 153.868358,8.21953125 C154.563674,7.97734254 154.911327,7.54375313 154.911327,6.91875 C154.911327,6.44999766 154.764844,6.11601662 154.471874,5.91679688 C154.174997,5.7214834 153.710158,5.55156322 153.077343,5.40703125 L151.911327,5.14335938 C151.149604,4.97148352 150.610547,4.78203229 150.294139,4.575 C149.747262,4.2156232 149.473827,3.6785192 149.473827,2.96367188 C149.473827,2.19023051 149.741402,1.55547123 150.276561,1.059375 C150.81172,0.56327877 151.569525,0.315234375 152.549999,0.315234375 C153.452347,0.315234375 154.218941,0.533005635 154.849803,0.968554687 C155.480666,1.40410374 155.796093,2.10038584 155.796093,3.05742188 L154.700389,3.05742188 C154.641795,2.59648207 154.516797,2.24296998 154.325389,1.996875 C153.969919,1.547654 153.366409,1.32304687 152.514843,1.32304687 C151.827339,1.32304687 151.333203,1.46757668 151.032421,1.75664062 C150.731638,2.04570457 150.581249,2.38163871 150.581249,2.76445313 C150.581249,3.18633023 150.757028,3.4949209 151.108593,3.69023438 C151.339062,3.815235 151.860542,3.97148344 152.673046,4.15898438 L153.880077,4.434375 C154.462111,4.56718816 154.911325,4.74882697 155.227733,4.97929688 C155.774611,5.38164264 156.048046,5.96562117 156.048046,6.73125 C156.048046,7.68437977 155.701369,8.36601357 155.008007,8.77617187 C154.314644,9.18633018 153.508988,9.39140625 152.591014,9.39140625 C151.520697,9.39140625 150.682814,9.11797148 150.077343,8.57109375 C149.471871,8.02812229 149.174999,7.29180152 149.186718,6.36210938 L150.282421,6.36210938 Z M68.1105469,14.9320312 L68.1105469,20.2523437 C68.1105469,20.8773469 68.2277332,21.3968729 68.4621094,21.8109375 C68.8097674,22.4359406 69.395699,22.7484375 70.2199219,22.7484375 C71.2082081,22.7484375 71.8800763,22.4105503 72.2355469,21.7347656 C72.4269541,21.3675763 72.5226562,20.8734406 72.5226562,20.2523437 L72.5226562,14.9320312 L73.70625,14.9320312 L73.70625,19.7660156 C73.70625,20.8246147 73.5636733,21.6390596 73.2785156,22.209375 C72.7550755,23.2484427 71.7668041,23.7679687 70.3136719,23.7679687 C68.8605396,23.7679687 67.8742213,23.2484427 67.3546875,22.209375 C67.0695298,21.6390596 66.9269531,20.8246147 66.9269531,19.7660156 L66.9269531,14.9320312 L68.1105469,14.9320312 Z M76.8442707,14.9320312 L78.2212238,14.9320312 L82.5688801,21.9046875 L82.5688801,14.9320312 L83.676302,14.9320312 L83.676302,23.5394531 L82.3696613,23.5394531 L77.957552,16.5726562 L77.957552,23.5394531 L76.8442707,23.5394531 L76.8442707,14.9320312 Z M90.148307,22.5433594 C90.5428402,22.5433594 90.8670558,22.5023442 91.1209633,22.4203125 C91.5740905,22.267968 91.9451806,21.9750022 92.2342445,21.5414062 C92.4647144,21.1937483 92.6307284,20.7484402 92.7322914,20.2054687 C92.7908854,19.8812484 92.820182,19.5804701 92.820182,19.303125 C92.820182,18.2367134 92.6082701,17.4085967 92.1844398,16.81875 C91.7606096,16.2289033 91.0779992,15.9339844 90.1365883,15.9339844 L88.0682289,15.9339844 L88.0682289,22.5433594 L90.148307,22.5433594 Z M86.8963539,14.9320312 L90.382682,14.9320312 C91.5662817,14.9320312 92.4842413,15.3519489 93.1365883,16.1917969 C93.7186224,16.9496132 94.0096351,17.9203066 94.0096351,19.1039062 C94.0096351,20.0179733 93.8377619,20.8441369 93.4940101,21.5824219 C92.8885384,22.8871159 91.8475332,23.5394531 90.3709633,23.5394531 L86.8963539,23.5394531 L86.8963539,14.9320312 Z M96.9542965,14.9320312 L103.229687,14.9320312 L103.229687,15.9867187 L98.0910152,15.9867187 L98.0910152,18.6 L102.842968,18.6 L102.842968,19.5960937 L98.0910152,19.5960937 L98.0910152,22.5140625 L103.317578,22.5140625 L103.317578,23.5394531 L96.9542965,23.5394531 L96.9542965,14.9320312 Z M110.182161,18.8753906 C110.729039,18.8753906 111.161652,18.7660167 111.480012,18.5472656 C111.798373,18.3285145 111.957552,17.9339872 111.957552,17.3636719 C111.957552,16.7503876 111.734898,16.332423 111.289583,16.1097656 C111.0513,15.9925775 110.732944,15.9339844 110.334505,15.9339844 L107.486848,15.9339844 L107.486848,18.8753906 L110.182161,18.8753906 Z M106.320833,14.9320312 L110.305208,14.9320312 C110.961461,14.9320312 111.502471,15.0277334 111.928255,15.2191406 C112.736852,15.58633 113.141145,16.2640576 113.141145,17.2523437 C113.141145,17.7679713 113.034701,18.1898421 112.821809,18.5179687 C112.608918,18.8460954 112.311069,19.1097646 111.928255,19.3089844 C112.264194,19.4457038 112.517121,19.6253895 112.687044,19.8480469 C112.856966,20.0707042 112.951692,20.4320288 112.971223,20.9320312 L113.012239,22.0863281 C113.023958,22.4144548 113.051301,22.6585929 113.09427,22.81875 C113.164583,23.0921889 113.289582,23.2679684 113.46927,23.3460937 L113.46927,23.5394531 L112.039583,23.5394531 C112.00052,23.465234 111.96927,23.3695318 111.945833,23.2523437 C111.922395,23.1351557 111.902864,22.9085954 111.887239,22.5726562 L111.816927,21.1371094 C111.789583,20.5746066 111.5806,20.1976572 111.189973,20.00625 C110.967316,19.9007807 110.61771,19.8480469 110.141145,19.8480469 L107.486848,19.8480469 L107.486848,23.5394531 L106.320833,23.5394531 L106.320833,14.9320312 Z M119.90026,14.709375 C120.708858,14.709375 121.408069,14.8656234 121.997916,15.178125 C122.853389,15.627346 123.376821,16.4144475 123.568228,17.5394531 L122.413932,17.5394531 C122.273306,16.9105437 121.982293,16.4525405 121.540885,16.1654297 C121.099476,15.8783189 120.542841,15.7347656 119.870963,15.7347656 C119.074084,15.7347656 118.403192,16.0335908 117.858268,16.63125 C117.313343,17.2289092 117.040885,18.1195253 117.040885,19.303125 C117.040885,20.3265676 117.265492,21.1595671 117.714713,21.8021484 C118.163934,22.4447298 118.896348,22.7660156 119.911978,22.7660156 C120.689326,22.7660156 121.332874,22.5404319 121.842643,22.0892578 C122.352411,21.6380837 122.61315,20.9085988 122.624869,19.9007812 L119.929557,19.9007812 L119.929557,18.9339844 L123.708853,18.9339844 L123.708853,23.5394531 L122.958853,23.5394531 L122.677603,22.4320312 C122.28307,22.8656272 121.933464,23.1664054 121.628775,23.334375 C121.117054,23.6234389 120.46667,23.7679687 119.677603,23.7679687 C118.658067,23.7679687 117.781123,23.4378939 117.046744,22.7777344 C116.245959,21.9496052 115.845572,20.8128979 115.845572,19.3675781 C115.845572,17.9261647 116.236193,16.7796918 117.017447,15.928125 C117.759638,15.1156209 118.720566,14.709375 119.90026,14.709375 Z M130.848827,18.8753906 C131.395705,18.8753906 131.828318,18.7660167 132.146679,18.5472656 C132.46504,18.3285145 132.624218,17.9339872 132.624218,17.3636719 C132.624218,16.7503876 132.401564,16.332423 131.956249,16.1097656 C131.717967,15.9925775 131.399611,15.9339844 131.001171,15.9339844 L128.153515,15.9339844 L128.153515,18.8753906 L130.848827,18.8753906 Z M126.987499,14.9320312 L130.971874,14.9320312 C131.628127,14.9320312 132.169138,15.0277334 132.594921,15.2191406 C133.403519,15.58633 133.807812,16.2640576 133.807812,17.2523437 C133.807812,17.7679713 133.701367,18.1898421 133.488476,18.5179687 C133.275584,18.8460954 132.977735,19.1097646 132.594921,19.3089844 C132.93086,19.4457038 133.183787,19.6253895 133.35371,19.8480469 C133.523633,20.0707042 133.618358,20.4320288 133.63789,20.9320312 L133.678905,22.0863281 C133.690624,22.4144548 133.717968,22.6585929 133.760937,22.81875 C133.83125,23.0921889 133.956248,23.2679684 134.135937,23.3460937 L134.135937,23.5394531 L132.706249,23.5394531 C132.667187,23.465234 132.635937,23.3695318 132.612499,23.2523437 C132.589062,23.1351557 132.569531,22.9085954 132.553905,22.5726562 L132.483593,21.1371094 C132.456249,20.5746066 132.247267,20.1976572 131.85664,20.00625 C131.633982,19.9007807 131.284377,19.8480469 130.807812,19.8480469 L128.153515,19.8480469 L128.153515,23.5394531 L126.987499,23.5394531 L126.987499,14.9320312 Z M140.561067,14.6976562 C142.080606,14.6976562 143.205594,15.1859326 143.936067,16.1625 C144.506382,16.9242226 144.791536,17.8988222 144.791536,19.0863281 C144.791536,20.3714908 144.465367,21.4398395 143.81302,22.2914062 C143.047391,23.2914112 141.955605,23.7914062 140.537629,23.7914062 C139.213404,23.7914062 138.172399,23.3539106 137.414582,22.4789062 C136.738798,21.635152 136.400911,20.5687564 136.400911,19.2796875 C136.400911,18.1156192 136.68997,17.1195354 137.268098,16.2914063 C138.010289,15.2289009 139.107935,14.6976562 140.561067,14.6976562 Z M140.678254,22.7484375 C141.705603,22.7484375 142.44876,22.3802771 142.907746,21.6439453 C143.366733,20.9076135 143.596223,20.0609423 143.596223,19.1039062 C143.596223,18.0921824 143.331577,17.2777375 142.802278,16.6605469 C142.272978,16.0433563 141.549353,15.7347656 140.631379,15.7347656 C139.74075,15.7347656 139.014195,16.0404266 138.451692,16.6517578 C137.889189,17.263089 137.607942,18.1644472 137.607942,19.3558594 C137.607942,20.3089891 137.84915,21.112692 138.331575,21.7669922 C138.813999,22.4212923 139.596218,22.7484375 140.678254,22.7484375 Z M148.779166,14.9320312 L148.779166,20.2523437 C148.779166,20.8773469 148.896352,21.3968729 149.130728,21.8109375 C149.478386,22.4359406 150.064318,22.7484375 150.888541,22.7484375 C151.876827,22.7484375 152.548695,22.4105503 152.904166,21.7347656 C153.095573,21.3675763 153.191275,20.8734406 153.191275,20.2523437 L153.191275,14.9320312 L154.374869,14.9320312 L154.374869,19.7660156 C154.374869,20.8246147 154.232292,21.6390596 153.947134,22.209375 C153.423694,23.2484427 152.435423,23.7679687 150.982291,23.7679687 C149.529158,23.7679687 148.54284,23.2484427 148.023306,22.209375 C147.738149,21.6390596 147.595572,20.8246147 147.595572,19.7660156 L147.595572,14.9320312 L148.779166,14.9320312 Z M157.512889,14.9320312 L158.889843,14.9320312 L163.237499,21.9046875 L163.237499,14.9320312 L164.344921,14.9320312 L164.344921,23.5394531 L163.03828,23.5394531 L158.626171,16.5726562 L158.626171,23.5394531 L157.512889,23.5394531 L157.512889,14.9320312 Z M170.816926,22.5433594 C171.211459,22.5433594 171.535674,22.5023442 171.789582,22.4203125 C172.242709,22.267968 172.613799,21.9750022 172.902863,21.5414062 C173.133333,21.1937483 173.299347,20.7484402 173.40091,20.2054687 C173.459504,19.8812484 173.488801,19.5804701 173.488801,19.303125 C173.488801,18.2367134 173.276889,17.4085967 172.853059,16.81875 C172.429228,16.2289033 171.746618,15.9339844 170.805207,15.9339844 L168.736848,15.9339844 L168.736848,22.5433594 L170.816926,22.5433594 Z M167.564973,14.9320312 L171.051301,14.9320312 C172.2349,14.9320312 173.15286,15.3519489 173.805207,16.1917969 C174.387241,16.9496132 174.678254,17.9203066 174.678254,19.1039062 C174.678254,20.0179733 174.506381,20.8441369 174.162629,21.5824219 C173.557157,22.8871159 172.516152,23.5394531 171.039582,23.5394531 L167.564973,23.5394531 L167.564973,14.9320312 Z" id="METROPOLISUNDERGROUND" fill="#191919"></path>
                </g>
            </g>
        </g>
    </g>
</svg>