<?xml version="1.0" encoding="UTF-8"?>
<svg width="46px" height="20px" viewBox="0 0 46 20" version="1.1" xmlns="http://www.w3.org/2000/svg" xmlns:xlink="http://www.w3.org/1999/xlink">
    <!-- Generator: Sketch 54.1 (76490) - https://sketchapp.com -->
    <title>logo</title>
    <desc>Created with Sketch.</desc>
    <g id="Landing" stroke="none" stroke-width="1" fill="none" fill-rule="evenodd">
        <g id="LP-Metropolis-v2" transform="translate(-1282.000000, -1306.000000)" fill="#F8CC4A" fill-rule="nonzero">
            <g id="Footer" transform="translate(0.000000, 1280.000000)">
                <g id="logo" transform="translate(1282.000000, 26.000000)">
                    <path d="M0,0.421875 L3.12890625,0.421875 L3.12890625,3.09375 C3.87891,2.16796412 4.5585907,1.49414273 5.16796875,1.07226562 C6.21094271,0.357418301 7.39452463,0 8.71875,0 C10.2187575,0 11.4257767,0.369136934 12.3398438,1.10742188 C12.8554713,1.52929898 13.3242166,2.15038652 13.7460938,2.97070313 C14.4492223,1.96288559 15.2753859,1.21582274 16.2246094,0.729492188 C17.1738329,0.243161631 18.2402285,0 19.4238281,0 C21.9550908,0 23.6777298,0.914053359 24.5917969,2.7421875 C25.0839868,3.72656742 25.3300781,5.05077293 25.3300781,6.71484375 L25.3300781,19.2480469 L22.0429688,19.2480469 L22.0429688,6.16992188 C22.0429688,4.91600936 21.7294953,4.05468984 21.1025391,3.5859375 C20.4755828,3.11718516 19.710942,2.8828125 18.8085938,2.8828125 C17.5664,2.8828125 16.4970748,3.29882396 15.6005859,4.13085938 C14.7040971,4.96289479 14.2558594,6.35155277 14.2558594,8.296875 L14.2558594,19.2480469 L11.0390625,19.2480469 L11.0390625,6.9609375 C11.0390625,5.68358736 10.8867203,4.75195605 10.5820312,4.16601562 C10.1015601,3.28710498 9.20508469,2.84765625 7.89257812,2.84765625 C6.69725965,2.84765625 5.61035646,3.31054225 4.63183594,4.23632812 C3.65331542,5.162114 3.1640625,6.8378785 3.1640625,9.26367188 L3.1640625,19.2480469 L0,19.2480469 L0,0.421875 Z M33.1523438,0.421875 L33.1523438,12.9199219 C33.1523438,13.8808642 33.304686,14.6660126 33.609375,15.2753906 C34.1718778,16.4003963 35.2206954,16.9628906 36.7558594,16.9628906 C38.9589954,16.9628906 40.4589804,15.9785255 41.2558594,14.0097656 C41.6894553,12.9550729 41.90625,11.5078217 41.90625,9.66796875 L41.90625,0.421875 L45.0703125,0.421875 L45.0703125,19.2480469 L42.0820312,19.2480469 L42.1171875,16.4707031 C41.7070292,17.1855504 41.1972687,17.78906 40.5878906,18.28125 C39.3808533,19.2656299 37.9160242,19.7578125 36.1933594,19.7578125 C33.5097522,19.7578125 31.6816455,18.8613371 30.7089844,17.0683594 C30.181638,16.1074171 29.9179688,14.8242268 29.9179688,13.21875 L29.9179688,0.421875 L33.1523438,0.421875 Z" id="mu"></path>
                </g>
            </g>
        </g>
    </g>
</svg>