<?xml version="1.0" encoding="UTF-8"?>
<svg width="488px" height="256px" viewBox="0 0 488 256" version="1.1" xmlns="http://www.w3.org/2000/svg" xmlns:xlink="http://www.w3.org/1999/xlink">
    <!-- Generator: Sketch 54.1 (76490) - https://sketchapp.com -->
    <title>Image</title>
    <desc>Created with Sketch.</desc>
    <g id="Landing" stroke="none" stroke-width="1" fill="none" fill-rule="evenodd">
        <g id="LP-Metropolis-v2" transform="translate(-112.000000, -778.000000)" fill="#1B1B1B">
            <g id="03-features" transform="translate(0.000000, 568.000000)">
                <g id="Image" transform="translate(112.000000, 210.000000)">
                    <g id="Group-12">
                        <path d="M96.6790492,220.828047 L96.6790492,220.828047 C93.3061977,200.637977 75.834761,185.843117 55.3649035,185.843117 L45.5248089,185.843117 C20.4686277,185.843117 0.125674505,165.589661 0.0151993657,140.533724 L0.000468188687,137.192669 C-0.117479364,110.441976 21.4726266,88.6606394 48.2233195,88.5426919 C48.2945068,88.542378 48.3656946,88.5422211 48.4368825,88.5422211 L157.624095,88.5422211 C174.131787,88.5422211 189.995711,82.1380369 201.876883,70.6775991 L201.876883,70.6775991 C213.758055,59.2171613 229.621979,52.8129771 246.12967,52.8129771 L384.069877,52.8129771 C440.522313,52.8129771 486.652257,97.8759931 487.973026,154.312977 L487.973026,154.312977 C489.254558,209.073353 445.901389,254.504297 391.141013,255.785829 C390.367672,255.803927 389.594146,255.812977 388.820593,255.812977 L137.993195,255.812977 C117.523337,255.812977 100.051901,241.018117 96.6790492,220.828047 Z" id="Path-11"></path>
                        <ellipse id="Oval-Copy-8" opacity="0.8" cx="85.8789189" cy="54.3854962" rx="13.8789189" ry="14"></ellipse>
                        <ellipse id="Oval-Copy-9" opacity="0.8" cx="466.665447" cy="20.5" rx="20.6654467" ry="20.5"></ellipse>
                    </g>
                </g>
            </g>
        </g>
    </g>
</svg>