<?xml version="1.0" encoding="UTF-8"?>
<svg width="704px" height="584px" viewBox="0 0 704 584" version="1.1" xmlns="http://www.w3.org/2000/svg" xmlns:xlink="http://www.w3.org/1999/xlink">
    <!-- Generator: Sketch 54.1 (76490) - https://sketchapp.com -->
    <title>Imagen Hero</title>
    <desc>Created with Sketch.</desc>
    <g id="Landing" stroke="none" stroke-width="1" fill="none" fill-rule="evenodd">
        <g id="LP-Metropolis-v2" transform="translate(-736.000000, -104.000000)" fill="#FFE59F">
            <g id="01-Hero" transform="translate(112.000000, 104.000000)">
                <g id="Imagen-Hero" transform="translate(624.000000, 0.000000)">
                    <circle id="Oval-Copy-4" cx="7" cy="377" r="7"></circle>
                    <circle id="Oval-Copy-2" cx="601.5" cy="10.5" r="10.5"></circle>
                    <circle id="Oval-Copy-3" cx="142.5" cy="489.5" r="10.5"></circle>
                    <path d="M704,17 L685.361879,17 C652.71343,17 622.4553,34.1176676 605.637922,62.1015385 L605.637922,62.1015385 C588.820544,90.0854093 558.562415,107.203077 525.913966,107.203077 L290.139969,107.203077 C255.732554,107.203077 225.019596,128.778433 213.350285,161.146587 L208.735485,173.947047 C199.279348,200.176334 179.30205,221.26676 153.623511,232.129843 L92.1177729,258.149313 C56.8898788,273.052168 34,307.589388 34,345.839873 L34,345.839873 C34,383.127513 58.8807874,415.832494 94.8166682,425.781393 L135.204295,436.962763 C153.77265,442.103439 170.460637,452.498721 183.261336,466.89846 L189.58097,474.007531 C206.09011,492.578964 229.690603,503.292065 254.538319,503.493977 L398.984759,504.667745 C429.398627,504.914888 457.846628,519.741607 475.469599,544.530624 L475.469599,544.530624 C493.073124,569.29229 521.574725,584 551.956038,584 L704,584 L704,17 Z" id="Path-2"></path>
                    <rect id="Rectangle" x="99" y="141" width="66" height="51" rx="25.5"></rect>
                </g>
            </g>
        </g>
    </g>
</svg>