<?xml version="1.0" encoding="UTF-8"?>
<svg width="414px" height="736px" viewBox="0 0 414 736" version="1.1" xmlns="http://www.w3.org/2000/svg" xmlns:xlink="http://www.w3.org/1999/xlink">
    <!-- Generator: Sketch 54.1 (76490) - https://sketchapp.com -->
    <title>Topup filled</title>
    <desc>Created with Sketch.</desc>
    <g id="Topup-filled" stroke="none" stroke-width="1" fill="none" fill-rule="evenodd">
        <rect fill="#FFD047" x="0" y="0" width="414" height="736"></rect>
        <rect id="Rectangle-Copy-4" fill="#FFFFFF" x="40" y="535" width="334" height="71" rx="12"></rect>
        <text id="Top-up" font-family="HelveticaNeue-Medium, Helvetica Neue" font-size="16" font-weight="400" fill="#1A1A1A">
            <tspan x="180.92" y="100">Top up</tspan>
        </text>
        <text id="40" font-family="HelveticaNeue-Bold, Helvetica Neue" font-size="72" font-weight="bold" letter-spacing="-3" fill="#1A1A1A">
            <tspan x="163.968" y="364">40</tspan>
        </text>
        <text id="€" font-family="HelveticaNeue-Bold, Helvetica Neue" font-size="26" font-weight="bold" fill="#1A1A1A">
            <tspan x="245" y="331">€</tspan>
        </text>
        <g id="Group-3" transform="translate(326.000000, 69.000000)">
            <circle id="Oval" fill="#FFFFFF" cx="24" cy="24" r="24"></circle>
            <path d="M25.6,22.4 L32,22.4 L32,25.6 L25.6,25.6 L25.6,32 L22.4,32 L22.4,25.6 L16,25.6 L16,22.4 L22.4,22.4 L22.4,16 L25.6,16 L25.6,22.4 Z" id="Combined-Shape" fill="#1A1A1A" transform="translate(24.000000, 24.000000) rotate(-45.000000) translate(-24.000000, -24.000000) "></path>
        </g>
        <g id="Group-2" transform="translate(40.000000, 626.000000)">
            <rect id="Rectangle-Copy-2" fill="#1A1A1A" x="0" y="0" width="334" height="70" rx="12"></rect>
            <text id="Top-up" font-family="HelveticaNeue-Medium, Helvetica Neue" font-size="16" font-weight="400" fill="#FFFFFF">
                <tspan x="141.42" y="39">Top up</tspan>
            </text>
        </g>
        <text id="Payment-method" font-family="HelveticaNeue-Medium, Helvetica Neue" font-size="11" font-weight="400" fill="#1A1A1A">
            <tspan x="40" y="520">PAYMENT METHOD</tspan>
        </text>
        <text id="MasterCard-ending-in" font-family="HelveticaNeue-Medium, Helvetica Neue" font-size="16" font-weight="400" fill="#1A1A1A">
            <tspan x="105" y="576">MasterCard ending in 2020</tspan>
        </text>
        <g id="Group-5" transform="translate(62.000000, 560.000000)">
            <rect id="Rectangle" fill="#3F5389" x="0" y="0" width="32" height="22" rx="3"></rect>
            <g id="Group-4" transform="translate(6.000000, 5.000000)">
                <circle id="Oval-Copy" fill="#FFD047" cx="15" cy="6" r="6"></circle>
                <circle id="Oval" fill="#F02B2B" cx="6" cy="6" r="6"></circle>
            </g>
        </g>
        <g id="Group-6" transform="translate(339.000000, 568.000000)" stroke="#1A1A1A" stroke-linecap="square" stroke-width="2">
            <path d="M13.5,0.5 L7,7" id="Line"></path>
            <path d="M6.5,0.5 L0,7" id="Line-Copy" transform="translate(3.500000, 3.500000) scale(-1, 1) translate(-3.500000, -3.500000) "></path>
        </g>
    </g>
</svg>